<svg xmlns="http://www.w3.org/2000/svg" viewBox="0 0 70.722 70.722">
  <path d="M35.361,0A35.361,35.361,0,1,0,70.722,35.361,35.336,35.336,0,0,0,35.361,0Zm2.546,57.923H32.325c-8.077-.27-15.975-5.841-15.975-11.734a3.721,3.721,0,0,1,2.947-3.775h3.412c1.64,0,2.831.634,3.889,2.533a7.333,7.333,0,0,0,6.23,3.36h4.652c4.654,0,7.019-.93,7.019-4.575s-2.365-4.73-7.019-4.73H18.957a2.73,2.73,0,0,1-2.7-2.727V17.0a2.7,2.7,0,0,1,2.7-2.792H38.372l.084,0c.166,0,.254,0,.359,0,3.077,0,5.566,2.67,4.787,5.627a3.91,3.91,0,0,1-3.371,3.046l-.166.014H25.838v7.755H38.513c10.573,0,16.815,4.1,16.815,13.79S48.484,57.923,37.907,57.923ZM51.113,22.873a4.346,4.346,0,1,1,4.217-4.344A4.286,4.286,0,0,1,51.113,22.873Z" fill="#009FE3" fill-rule="evenodd"/>
</svg>
